<?xml version="1.0" standalone="no"?>
<!DOCTYPE svg PUBLIC "-//W3C//DTD SVG 20010904//EN"
 "http://www.w3.org/TR/2001/REC-SVG-20010904/DTD/svg10.dtd">
<svg version="1.0" xmlns="http://www.w3.org/2000/svg"
 width="800.000000pt" height="800.000000pt" viewBox="0 0 800.000000 800.000000"
 preserveAspectRatio="xMidYMid meet">

<g transform="translate(0.000000,800.000000) scale(0.100000,-0.100000)"
fill="#000000" stroke="none">
<path d="M0 4000 l0 -4000 4000 0 4000 0 0 4000 0 4000 -4000 0 -4000 0 0
-4000z m3548 2250 c-35 -19 -54 -37 -47 -45 2 -1 49 12 104 31 55 18 118 34
140 34 l40 0 -52 -30 c-29 -17 -53 -34 -53 -39 0 -5 21 -3 48 5 52 15 235 44
241 38 2 -2 -9 -9 -25 -16 -26 -10 -15 -13 95 -19 137 -9 240 -24 286 -43 28
-12 26 -12 -30 -8 -33 2 -75 0 -94 -5 -32 -8 -22 -11 98 -35 145 -28 193 -26
224 13 9 11 17 35 17 53 l1 31 24 -28 c28 -31 31 -70 10 -107 -18 -32 -18 -40
0 -40 9 0 39 -12 68 -27 38 -19 68 -27 109 -27 61 -1 71 -8 38 -28 -11 -7 -20
-16 -20 -20 0 -17 49 -7 84 17 41 28 44 24 16 -22 l-20 -33 23 0 c12 0 35 7
51 15 39 21 42 14 11 -24 -15 -17 -22 -31 -16 -31 7 0 24 20 39 45 15 24 30
45 35 45 4 0 7 -30 7 -67 0 -52 3 -64 12 -55 26 26 31 11 26 -73 -5 -80 -5
-84 13 -75 10 6 21 15 24 20 14 22 22 8 15 -27 -15 -86 -84 -157 -162 -169
-46 -8 -47 -14 -5 -34 53 -25 79 -92 85 -216 6 -137 -7 -196 -83 -389 -89
-223 -100 -266 -98 -410 1 -90 6 -136 21 -185 11 -36 21 -59 21 -51 1 17 68 8
112 -14 43 -23 58 -53 65 -135 8 -89 21 -117 80 -177 44 -43 45 -46 30 -69
-51 -77 -161 -154 -406 -284 -283 -150 -423 -236 -580 -360 -63 -50 -63 -49
22 33 47 45 124 110 171 142 46 33 142 101 213 150 145 102 287 231 334 306
18 27 31 51 29 54 -2 2 -42 -25 -89 -59 -47 -34 -116 -84 -155 -111 -80 -56
-95 -75 126 170 152 168 165 186 149 214 -22 41 -48 36 -139 -26 -765 -524
-991 -734 -1169 -1087 l-49 -99 -26 44 c-80 137 -51 341 72 515 46 65 160 183
226 233 22 16 26 24 16 28 -8 3 -33 23 -56 44 l-42 38 -15 -32 c-25 -52 -68
-98 -132 -139 -68 -44 -90 -49 -56 -13 37 40 4 31 -80 -21 -41 -25 -104 -62
-140 -81 -36 -20 -80 -47 -97 -60 -18 -13 -33 -22 -33 -19 0 3 20 30 45 61 25
30 42 55 39 55 -23 0 -138 -73 -180 -115 -65 -65 -84 -122 -61 -189 15 -44 15
-46 -3 -36 -37 20 -122 127 -160 202 -44 88 -64 172 -57 236 3 27 1 40 -5 34
-5 -5 -12 -36 -15 -68 -8 -73 -21 -47 -22 43 -1 63 30 168 65 221 26 40 9 35
-30 -8 -25 -28 -36 -35 -36 -23 1 35 38 100 92 158 29 33 64 73 76 89 39 51
23 63 -27 20 -36 -30 -41 -21 -9 13 l21 23 -22 0 c-19 0 -18 3 15 33 21 17 59
66 85 107 38 60 46 78 37 93 -5 10 -7 28 -5 39 4 15 -3 23 -37 38 -70 29 -105
94 -77 139 7 11 11 9 20 -8 7 -11 16 -21 22 -21 13 0 79 50 79 59 0 4 -16 15
-34 24 -45 21 -66 79 -46 126 9 23 9 42 1 81 -19 89 -15 133 17 162 36 34 104
78 119 78 6 0 24 11 38 24 32 30 118 59 235 81 47 9 94 18 104 20 11 2 189
-23 395 -56 224 -36 388 -58 406 -54 75 16 113 16 147 2 44 -19 83 -68 98
-127 6 -25 30 -69 51 -97 54 -72 56 -80 24 -95 -23 -10 -32 -9 -57 5 -17 10
-31 16 -32 15 -1 -2 -12 -34 -24 -73 -26 -84 -85 -176 -148 -235 l-47 -43 12
-62 c35 -195 -16 -425 -148 -655 -27 -47 -47 -86 -46 -88 7 -7 50 23 168 116
67 54 205 160 307 236 102 76 191 144 198 151 11 10 1 37 -56 153 -104 210
-114 266 -97 552 7 125 6 139 -15 192 -65 173 -294 258 -543 202 l-71 -17 -16
23 c-27 40 -73 81 -85 76 -17 -6 -42 71 -29 89 5 7 21 28 36 47 15 19 31 49
34 66 l7 32 -58 0 -57 0 7 39 6 39 -87 7 c-199 17 -301 -6 -439 -98 -82 -54
-98 -79 -126 -210 -12 -59 -29 -105 -50 -138 -18 -27 -34 -47 -36 -45 -2 2 7
31 21 63 14 33 30 91 36 129 6 38 25 97 42 130 l30 62 -36 49 c-90 125 -130
266 -106 369 l14 59 7 -54 c9 -68 23 -83 26 -26 2 49 30 110 76 167 67 83 218
178 282 177 l30 0 -37 -19z m-858 -3805 l0 -34 -25 25 c-22 21 -33 25 -78 22
l-52 -3 -3 -82 -3 -83 50 0 c40 0 53 4 65 22 15 22 16 20 16 -30 l0 -52 -20
20 c-14 14 -33 20 -65 20 l-45 0 0 -80 0 -80 54 0 c70 0 82 5 113 49 14 20 23
28 20 19 -3 -9 -9 -33 -13 -52 l-6 -36 -136 0 c-106 0 -133 3 -124 12 8 8 12
62 12 179 0 143 -2 168 -17 180 -14 12 2 15 113 19 71 3 132 4 137 2 4 -2 7
-18 7 -37z m334 -149 c47 -105 92 -193 98 -198 7 -4 -20 -8 -61 -8 -58 0 -71
3 -63 13 8 9 6 24 -8 55 l-19 42 -65 0 -64 0 -17 -44 c-10 -25 -14 -49 -10
-55 4 -7 -8 -11 -34 -11 -39 0 -40 1 -23 18 9 9 53 99 97 199 43 100 80 181
81 180 1 -1 40 -87 88 -191z m1364 173 c30 -10 32 -13 32 -57 l0 -47 -17 33
c-43 89 -190 84 -238 -7 -21 -42 -29 -121 -15 -170 24 -89 75 -128 156 -118
54 6 89 35 108 92 l14 39 7 -33 c15 -70 -53 -121 -161 -121 -153 0 -252 119
-215 257 33 122 176 180 329 132z m782 -164 c45 -99 89 -188 98 -197 14 -17
11 -18 -51 -18 -57 0 -65 2 -61 18 2 9 -4 33 -14 52 -17 35 -18 35 -82 35 -64
0 -65 0 -82 -35 -10 -19 -16 -43 -14 -52 3 -15 -3 -18 -31 -18 -33 0 -35 1
-21 18 8 9 50 99 94 199 43 99 80 180 81 180 1 -1 38 -83 83 -182z m426 145
l2 -30 -25 20 c-19 14 -41 20 -79 20 l-54 0 0 -85 0 -85 49 0 c40 0 53 4 65
22 15 22 16 20 16 -30 l0 -52 -20 20 c-14 14 -33 20 -65 20 l-45 0 0 -78 c0
-47 5 -83 12 -90 9 -9 -2 -12 -50 -12 -59 0 -62 1 -52 19 6 11 10 88 10 179 0
136 -2 162 -17 173 -14 12 2 15 113 19 71 3 131 4 133 2 3 -1 6 -16 7 -32z
m394 3 l0 -33 -21 21 c-16 16 -30 19 -67 17 l-47 -3 -3 -163 c-1 -101 2 -170
8 -182 10 -19 7 -20 -52 -20 -48 0 -59 3 -50 12 8 8 12 64 12 185 l0 173 -41
0 c-49 0 -77 -14 -89 -43 -7 -18 -9 -15 -9 19 -1 22 1 43 3 45 2 2 83 4 180 4
l176 0 0 -32z m-3725 13 c47 -20 69 -57 61 -101 -4 -20 -16 -41 -26 -48 -23
-14 -26 -27 -6 -27 8 0 26 -14 40 -31 47 -55 28 -127 -40 -155 -44 -18 -254
-20 -236 -2 8 8 12 62 12 177 0 139 -3 167 -17 183 -15 17 -12 18 81 18 61 0
109 -5 131 -14z m1182 -12 c58 -43 56 -130 -4 -170 -29 -19 -31 -23 -17 -35 9
-7 34 -39 55 -71 21 -31 49 -64 61 -72 22 -15 21 -16 -27 -16 -72 0 -95 16
-135 91 -19 37 -41 74 -49 83 -12 14 -11 16 3 16 32 0 66 46 66 88 0 52 -25
83 -70 85 l-35 2 -3 -169 c-2 -116 1 -173 9 -182 10 -12 1 -14 -52 -14 -49 0
-60 3 -51 12 8 8 12 63 12 179 0 144 -2 170 -17 184 -16 16 -9 17 104 14 104
-3 126 -7 150 -25z m465 -7 c97 -57 121 -213 45 -296 -44 -48 -92 -61 -226
-61 -97 0 -122 3 -113 12 8 8 12 63 12 179 0 144 -2 170 -17 185 -16 15 -9 16
118 12 125 -3 138 -5 181 -31z m860 9 c64 -42 55 -151 -14 -181 -27 -11 -30
-15 -15 -20 10 -4 32 -28 49 -54 17 -25 45 -61 62 -80 l31 -33 -57 4 c-71 6
-87 19 -137 114 l-38 73 27 9 c34 12 54 60 46 106 -8 41 -23 55 -70 63 l-36 6
0 -181 c0 -135 3 -182 13 -185 6 -3 -19 -6 -58 -6 -38 0 -65 3 -58 7 18 11 20
347 2 369 -12 14 -1 15 106 11 95 -3 126 -7 147 -22z m-1925 -694 c-25 -27
-22 -78 5 -96 12 -9 17 -16 11 -16 -16 0 -53 49 -53 71 0 11 9 28 20 39 25 25
39 26 17 2z m83 8 c0 -5 -2 -10 -4 -10 -3 0 -8 5 -11 10 -3 6 -1 10 4 10 6 0
11 -4 11 -10z m160 -110 c8 -5 10 -10 5 -10 -24 0 -35 26 -34 80 l2 55 6 -58
c4 -35 12 -62 21 -67z m56 3 c-9 -7 -11 -8 -6 -1 6 7 11 37 12 68 l2 55 3 -54
c3 -40 0 -58 -11 -68z m179 52 c0 -36 -3 -65 -7 -65 -5 0 -8 29 -8 65 0 36 3
65 8 65 4 0 7 -29 7 -65z m182 3 c26 -28 28 -58 3 -66 -13 -5 -13 -3 -1 12 13
15 10 21 -18 50 -23 24 -30 38 -24 52 7 18 8 18 11 -1 2 -11 15 -32 29 -47z
m276 39 c-4 -19 5 -32 39 -61 23 -21 59 -46 78 -56 19 -11 29 -19 22 -20 -20
0 -52 19 -103 61 -41 34 -48 37 -54 22 -4 -12 1 -24 17 -37 20 -16 20 -18 4
-15 -30 6 -43 35 -28 59 7 12 10 25 6 31 -7 12 2 39 14 39 5 0 7 -11 5 -23z
m47 13 c0 -5 -2 -10 -4 -10 -3 0 -8 5 -11 10 -3 6 -1 10 4 10 6 0 11 -4 11
-10z m295 0 c-4 -6 9 -29 29 -50 20 -22 36 -43 36 -47 0 -14 -34 -43 -49 -42
-10 0 -8 3 7 9 31 13 28 38 -9 76 -20 20 -29 39 -26 48 4 9 9 16 12 16 4 0 3
-5 0 -10z m185 -55 c0 -37 -4 -65 -10 -65 -6 0 -10 28 -10 65 0 37 4 65 10 65
6 0 10 -28 10 -65z m90 0 c0 -37 -4 -65 -10 -65 -6 0 -10 28 -10 65 0 37 4 65
10 65 6 0 10 -28 10 -65z m219 -57 c2 -21 -16 -4 -27 25 -32 79 -28 75 -46 35
-9 -21 -16 -44 -16 -53 0 -8 -4 -15 -10 -15 -14 0 -14 1 17 71 l27 62 27 -59
c15 -32 28 -62 28 -66z m122 110 c0 -7 9 -31 19 -53 l18 -40 22 53 c13 28 26
52 30 52 4 0 -6 -30 -23 -66 l-32 -66 -27 59 c-30 66 -32 73 -18 73 6 0 10 -6
11 -12z m219 -18 c0 -17 5 -30 13 -31 10 0 10 -2 0 -6 -7 -2 -13 -15 -13 -28
0 -18 6 -25 28 -28 23 -3 22 -4 -8 -6 l-35 -1 0 65 c0 36 3 65 8 65 4 0 7 -13
7 -30z m173 11 c-3 -13 3 -25 21 -36 26 -17 36 -58 17 -69 -5 -4 -7 3 -4 15 4
14 -2 28 -21 45 -26 24 -32 44 -19 57 10 11 11 8 6 -12z m-770 -48 c-7 -2 -21
-2 -30 0 -10 3 -4 5 12 5 17 0 24 -2 18 -5z m772 -53 c3 -5 1 -10 -4 -10 -6 0
-11 5 -11 10 0 6 2 10 4 10 3 0 8 -4 11 -10z"/>
<path d="M3600 6109 c-67 -36 -104 -71 -135 -124 -23 -40 -50 -123 -42 -131 2
-2 21 24 42 58 22 35 76 100 121 146 46 45 80 82 76 82 -4 0 -32 -14 -62 -31z"/>
<path d="M3434 6098 c-47 -57 -74 -126 -74 -195 0 -34 5 -65 10 -68 6 -3 10 5
10 18 0 37 38 154 71 220 33 63 25 74 -17 25z"/>
<path d="M3824 6085 c-124 -27 -247 -110 -296 -201 -50 -95 -40 -94 59 4 85
85 112 105 203 151 138 69 137 69 34 46z"/>
<path d="M3315 6019 c-36 -77 -32 -198 7 -252 11 -15 13 2 10 95 -2 62 1 133
7 158 5 24 8 46 6 49 -3 2 -16 -20 -30 -50z"/>
<path d="M3938 6014 c-113 -27 -209 -88 -267 -170 -37 -51 -32 -50 39 5 101
77 295 146 433 153 31 2 57 6 57 9 0 21 -180 23 -262 3z"/>
<path d="M3244 5978 c-9 -18 -19 -60 -22 -94 -4 -52 0 -71 22 -119 14 -32 28
-56 31 -53 3 2 0 31 -6 64 -6 32 -9 98 -7 146 1 48 2 88 1 88 -1 0 -10 -14
-19 -32z"/>
<path d="M4205 5989 c-128 -20 -242 -72 -327 -150 l-53 -49 60 35 c78 45 198
88 304 110 89 18 278 25 346 12 58 -11 23 8 -50 27 -79 20 -205 27 -280 15z"/>
<path d="M4200 5890 c-62 -13 -158 -62 -205 -105 -44 -40 -43 -40 35 -2 99 47
171 60 310 54 89 -3 142 -11 185 -25 33 -12 61 -19 63 -17 7 7 -104 65 -153
80 -64 20 -177 27 -235 15z"/>
<path d="M4607 5716 c95 -63 243 -131 227 -104 -3 4 5 8 18 9 13 0 39 7 58 14
34 13 34 13 -40 14 -70 1 -79 4 -135 41 -56 38 -199 100 -227 100 -7 0 37 -33
99 -74z"/>
<path d="M4180 5746 c-25 -6 -54 -18 -65 -25 -18 -11 -17 -12 9 -6 64 14 221
5 295 -15 128 -36 278 -121 369 -209 52 -51 54 -44 5 21 -76 104 -219 200
-348 233 -70 18 -202 19 -265 1z"/>
<path d="M4195 5643 c-46 -9 -155 -46 -155 -52 0 -3 55 -6 123 -7 123 -1 266
-28 363 -69 49 -20 52 -19 18 7 -16 12 -33 25 -39 30 -19 18 129 -43 179 -73
l51 -30 -47 44 c-117 110 -350 181 -493 150z"/>
<path d="M3515 5154 c-18 -13 -21 -30 -26 -152 -9 -187 -24 -219 -124 -263
-28 -12 -44 -24 -37 -26 21 -8 101 37 126 71 36 48 46 90 56 224 5 69 14 130
21 138 17 21 8 25 -16 8z"/>
<path d="M3283 5101 c-72 -34 -78 -48 -71 -144 5 -54 44 -174 54 -164 3 2 -2
19 -10 38 -21 51 -30 151 -17 191 8 25 26 43 66 67 30 18 55 35 55 37 0 9 -18
3 -77 -25z"/>
<path d="M3581 5101 c-11 -7 -4 -16 32 -38 26 -15 47 -31 47 -34 0 -4 -20 -4
-44 -2 l-44 5 -7 -48 c-26 -199 -68 -263 -190 -296 -25 -7 -45 -17 -45 -24 0
-6 -7 -17 -15 -24 -28 -24 -15 -38 54 -59 106 -32 173 -25 190 21 l8 23 7 -23
c23 -70 1 -140 -59 -190 -36 -29 -36 -29 -17 -52 l19 -23 189 145 c104 79 210
158 235 175 59 40 116 105 139 156 l19 41 3 -44 4 -45 25 54 26 54 12 -49 c7
-27 15 -83 18 -124 7 -91 15 -108 59 -126 59 -25 107 -5 186 78 105 110 144
209 118 302 -27 96 -116 139 -200 96 -87 -44 -251 -36 -580 31 -160 32 -169
33 -189 20z m898 -95 c23 -18 41 -72 41 -122 0 -52 -30 -121 -68 -156 l-24
-23 26 45 c20 35 26 59 26 108 0 57 -3 67 -29 93 -35 34 -42 35 -65 10 -22
-24 -16 -46 24 -96 39 -49 38 -79 -3 -120 -25 -25 -44 -34 -86 -40 -60 -8 -75
2 -60 42 5 14 9 37 9 52 0 16 19 66 43 112 33 66 49 88 77 101 35 18 62 16 89
-6z"/>
<path d="M3057 4982 c-22 -23 -27 -37 -26 -78 1 -86 18 -98 18 -12 1 70 3 78
27 97 15 12 22 21 17 21 -5 0 -21 -13 -36 -28z"/>
<path d="M3170 4900 c0 -5 -29 -41 -65 -79 -40 -42 -65 -77 -65 -91 0 -39 32
-79 77 -96 48 -19 72 -12 29 7 -60 28 0 51 64 25 75 -30 89 1 41 87 -16 28
-36 76 -46 105 -9 28 -21 52 -26 52 -5 0 -9 -4 -9 -10z"/>
<path d="M3514 4530 c-5 -5 -22 -16 -39 -24 -26 -14 -27 -16 -9 -16 23 0 73
34 63 44 -3 3 -10 2 -15 -4z"/>
<path d="M3455 4470 c-11 -5 -42 -9 -68 -9 -29 -1 -46 -5 -42 -11 9 -15 82
-12 115 5 43 22 39 34 -5 15z"/>
<path d="M3124 4416 c-14 -36 3 -49 61 -44 30 3 55 4 55 3 0 -2 -8 -22 -19
-46 -10 -24 -21 -57 -25 -74 l-6 -30 24 29 24 29 16 -53 c9 -30 16 -64 16 -77
0 -22 1 -23 28 -9 38 20 64 51 83 99 l17 42 13 -45 c17 -60 29 -72 29 -28 0
49 -18 98 -48 130 -51 55 -254 111 -268 74z"/>
<path d="M2879 2285 l-27 -65 54 0 c30 0 54 3 54 7 0 13 -45 123 -50 123 -3 0
-17 -29 -31 -65z"/>
<path d="M5035 2295 c-14 -32 -25 -61 -25 -66 0 -5 24 -9 54 -9 l55 0 -26 63
c-14 34 -27 64 -29 66 -2 2 -15 -22 -29 -54z"/>
<path d="M2155 2452 c-3 -3 -5 -81 -5 -174 l0 -168 29 0 c15 0 40 9 55 21 53
42 24 158 -40 159 -18 1 -18 1 1 12 46 25 60 82 30 125 -14 20 -59 36 -70 25z"/>
<path d="M3710 2286 l0 -176 50 0 c100 0 150 57 150 170 0 115 -42 168 -139
177 l-61 6 0 -177z"/>
</g>
</svg>
